<!-- Generated by IcoMoon.io -->
<svg version="1.1" xmlns="http://www.w3.org/2000/svg" width="32" height="32" viewBox="0 0 32 32">
<title>mic</title>
<path d="M22.5 0c-4.125 0-7.5 3.375-7.5 7.5 0 0.813 0.125 1.625 0.375 2.375l-13.063 13.125 2 2-2 2 5 5h2.875l10.813-10.813 1.813 1.813-3.188 3.125 0.75 0.75 3.813-3.875-3.188-3.188-11.188 11.188h-2.125l-4-4 1.313-1.313 2 2 13.125-13.063c0.75 0.25 1.563 0.375 2.375 0.375 4.125 0 7.5-3.375 7.5-7.5s-3.375-7.5-7.5-7.5zM3.688 23l8.313-8.313 3.313 3.313-8.313 8.313zM16 17.313l-3.313-3.313 3.125-3.125c0.75 1.438 1.875 2.563 3.313 3.313zM22.5 14c-3.563 0-6.5-2.938-6.5-6.5s2.938-6.5 6.5-6.5c3.563 0 6.5 2.938 6.5 6.5s-2.938 6.5-6.5 6.5z"></path>
</svg>
